<svg width="37" height="37" viewBox="0 0 37 37" fill="none" xmlns="http://www.w3.org/2000/svg">
<path d="M18.5152 35.073C17.544 35.073 16.5727 34.7493 15.8173 34.1018L13.3814 32.0051C13.1348 31.7893 12.5181 31.5734 12.1944 31.5734H9.52727C7.24561 31.5734 5.39562 29.7235 5.39562 27.4418V24.8055C5.39562 24.4817 5.17979 23.8805 4.96395 23.6338L2.8827 21.1826C1.61853 19.6872 1.61853 17.3285 2.8827 15.8331L4.96395 13.3819C5.17979 13.1352 5.39562 12.5339 5.39562 12.2102V9.57379C5.39562 7.29213 7.24561 5.44223 9.52727 5.44223H12.1944C12.5181 5.44223 13.1348 5.21094 13.3814 5.01052L15.8173 2.91388C17.3281 1.61888 19.6869 1.61888 21.1977 2.91388L23.6335 5.01052C23.8802 5.22635 24.4969 5.44223 24.8206 5.44223H27.4414C29.7231 5.44223 31.5731 7.29213 31.5731 9.57379V12.1947C31.5731 12.5185 31.8044 13.1352 32.0202 13.3819L34.1014 15.8176C35.3964 17.3285 35.3964 19.6872 34.1014 21.198L32.0202 23.6338C31.8044 23.8805 31.5885 24.4972 31.5885 24.8209V27.4418C31.5885 29.7235 29.7385 31.5734 27.4569 31.5734H24.836C24.5123 31.5734 23.8956 31.8047 23.6489 32.0051L21.2131 34.1018C20.4423 34.7493 19.4711 35.073 18.5152 35.073ZM9.52727 7.7393C8.52519 7.7393 7.70812 8.55628 7.70812 9.55836V12.1947C7.70812 13.0735 7.29186 14.1989 6.73686 14.8618L4.6556 17.313C4.11602 17.9451 4.11602 19.0397 4.6556 19.6718L6.73686 22.123C7.30728 22.8013 7.72355 23.9267 7.72355 24.79V27.4264C7.72355 28.4285 8.54062 29.2455 9.54271 29.2455H12.2098C13.104 29.2455 14.2294 29.6618 14.9077 30.2476L17.3435 32.3442C17.9756 32.8838 19.0856 32.8838 19.7177 32.3442L22.1535 30.2476C22.8319 29.6772 23.9573 29.2455 24.8514 29.2455H27.4723C28.4744 29.2455 29.2915 28.4285 29.2915 27.4264V24.8055C29.2915 23.9113 29.7077 22.7859 30.2935 22.1076L32.3748 19.6718C32.9144 19.0397 32.9144 17.9296 32.3748 17.2976L30.2935 14.8618C29.7231 14.1835 29.2915 13.058 29.2915 12.1639V9.54293C29.2915 8.54085 28.4744 7.72387 27.4723 7.72387H24.8514C23.9727 7.72387 22.8319 7.30758 22.1535 6.72175L19.7177 4.6251C19.0856 4.08552 17.9756 4.08552 17.3435 4.6251L14.9077 6.72175C14.2294 7.29217 13.104 7.72387 12.2098 7.72387H9.52727V7.7393Z" fill="#06C429"/>
<path d="M21.5829 26.1619H18.8387C18.1912 26.1619 17.2199 25.9615 16.6495 25.3911L14.5221 23.757L15.9404 21.9223L18.1758 23.649C18.33 23.7569 18.6075 23.834 18.8387 23.834H21.5829C21.9529 23.834 22.3999 23.5103 22.477 23.1866L24.2345 17.8369C24.2808 17.6981 24.2808 17.6057 24.2654 17.5749C24.2345 17.5286 24.1266 17.4823 23.9724 17.4823H21.0895C20.5345 17.4823 20.0258 17.2512 19.6558 16.8349C19.3012 16.4187 19.1316 15.8637 19.2087 15.2933L19.5787 12.9653C19.6096 12.842 19.5171 12.6877 19.4246 12.6569C19.3321 12.6415 19.1933 12.6724 19.1471 12.7186L16.2025 17.0969L14.2754 15.8019L17.2354 11.4082C17.852 10.4832 19.1471 10.0824 20.1954 10.4678C21.3671 10.8533 22.1224 12.1791 21.8604 13.3816L21.5829 15.1389H23.9724C24.882 15.1389 25.6837 15.5245 26.1616 16.2028C26.6241 16.8657 26.732 17.7291 26.4391 18.5462L24.7125 23.7879C24.3887 25.1137 23.0166 26.1619 21.5829 26.1619Z" fill="#06C429"/>
<path d="M13.7216 25.376H12.997C10.7308 25.376 10.3916 23.7881 10.3916 22.8477V15.7869C10.3916 14.8465 10.7308 13.2585 12.997 13.2585H13.7216C15.9879 13.2585 16.327 14.8465 16.327 15.7869V22.8477C16.327 23.7881 15.9879 25.376 13.7216 25.376ZM12.735 23.0481C12.7966 23.0635 12.8891 23.0635 13.0125 23.0635H13.737C13.8604 23.0635 13.9529 23.0635 14.0145 23.0481C14.0145 23.0018 14.03 22.9402 14.03 22.8477V15.7869C14.03 15.6944 14.0299 15.6327 14.0145 15.5865C13.9529 15.5711 13.8604 15.571 13.737 15.571H13.0125C12.8891 15.571 12.7966 15.5711 12.735 15.5865C12.735 15.6327 12.7195 15.6944 12.7195 15.7869V22.8477C12.7195 22.9402 12.7195 23.0018 12.735 23.0481Z" fill="#06C429"/>
</svg>
